2.5Hzhigh3min_grf.mot
version=1
nRows=30
nColumns 19
inDegrees=yes
endheader
time	1_ground_force_vx	1_ground_force_vy	1_ground_force_vz	1_ground_force_px	1_ground_force_py	1_ground_force_pz	1_ground_torque_x	1_ground_torque_y	1_ground_torque_z	2_ground_force_vx	2_ground_force_vy	2_ground_force_vz	2_ground_force_px	2_ground_force_py	2_ground_force_pz	2_ground_torque_x	2_ground_torque_y	2_ground_torque_z
            0.005000	           16.001867	          456.243575	          -37.337229	           -0.232884	            0.006387	           -0.443583	           -0.079658	           -2.271188	            0.185865	          -51.758310	          364.130836	           33.983739	           -0.216371	            0.005741	           -0.708541	            0.241888	           -1.701734	           -0.158820
            0.005500	           15.257751	          467.074316	          -40.774080	           -0.232880	            0.006390	           -0.444163	           -0.082124	           -2.514006	            0.219465	          -50.197201	          373.332334	           37.300882	           -0.216826	            0.005741	           -0.708839	            0.153676	           -1.142935	           -0.114194
            0.006000	           14.053418	          477.727878	          -44.944261	           -0.232998	            0.006391	           -0.444462	           -0.085278	           -2.898927	            0.272729	          -47.930346	          381.796839	           41.412875	           -0.217733	            0.005739	           -0.709335	            0.099536	           -0.792870	           -0.086001
            0.006500	           11.385145	          491.079018	          -47.677678	           -0.233280	            0.006387	           -0.443473	           -0.073931	           -3.188870	            0.309600	          -43.609994	          392.299371	           44.170305	           -0.218465	            0.005739	           -0.709977	            0.101063	           -0.909128	           -0.102362
            0.007000	            8.260510	          503.705663	          -49.633494	           -0.233424	            0.006386	           -0.443281	           -0.053503	           -3.262509	            0.321477	          -38.586431	          402.443067	           44.955141	           -0.219370	            0.005736	           -0.710145	            0.122445	           -1.277063	           -0.142655
            0.007500	            5.916811	          518.131774	          -50.803960	           -0.233227	            0.006384	           -0.442783	           -0.035786	           -3.133767	            0.307273	          -33.427626	          413.881733	           44.242817	           -0.219898	            0.005734	           -0.710018	            0.140490	           -1.739466	           -0.185944
            0.008000	            3.711851	          529.672480	          -51.712007	           -0.233412	            0.006385	           -0.443211	           -0.022056	           -3.147313	            0.307273	          -29.345809	          425.133204	           43.295654	           -0.221347	            0.005727	           -0.709677	            0.134830	           -1.953289	           -0.198923
            0.008500	            2.512100	          542.660816	          -53.854479	           -0.233743	            0.006385	           -0.443055	           -0.015011	           -3.242745	            0.321815	          -25.823744	          435.826481	           43.379177	           -0.222505	            0.005724	           -0.710052	            0.111675	           -1.884729	           -0.187593
            0.009000	            2.364912	          556.913936	          -56.636141	           -0.233630	            0.006384	           -0.442915	           -0.014614	           -3.441436	            0.349982	          -22.815187	          446.145430	           44.634808	           -0.222683	            0.005725	           -0.710415	            0.077151	           -1.508661	           -0.150935
            0.009500	            1.299274	          569.908196	          -60.154632	           -0.233618	            0.006384	           -0.442912	           -0.008467	           -3.714039	            0.392022	          -19.712392	          456.460367	           47.110530	           -0.223379	            0.005723	           -0.710664	            0.049764	           -1.152339	           -0.118931
            0.010000	           -0.591732	          582.722394	          -63.763552	           -0.233896	            0.006384	           -0.442898	            0.003886	           -3.826545	            0.418714	          -15.717539	          466.226765	           49.396189	           -0.224387	            0.005721	           -0.711052	            0.035658	           -1.057704	           -0.112063
            0.010500	           -3.809959	          596.433565	          -66.402345	           -0.234205	            0.006381	           -0.442297	            0.024891	           -3.896510	            0.433808	          -11.108251	          474.342828	           50.314761	           -0.225250	            0.005718	           -0.711025	            0.027610	           -1.178998	           -0.125059
            0.011000	           -6.749484	          610.138498	          -67.574432	           -0.234187	            0.006380	           -0.442024	            0.043849	           -3.963830	            0.439005	           -5.945584	          484.677593	           49.316926	           -0.225928	            0.005717	           -0.711291	            0.018378	           -1.498155	           -0.152440
            0.011500	           -9.322248	          623.122635	          -68.796372	           -0.234120	            0.006381	           -0.442164	            0.062966	           -4.208796	            0.464676	           -0.918376	          493.540505	           47.797686	           -0.226453	            0.005714	           -0.711080	            0.003388	           -1.820663	           -0.176325
            0.012000	          -10.290703	          635.927302	          -70.114772	           -0.234410	            0.006380	           -0.442049	            0.070949	           -4.384387	            0.483405	            2.933597	          503.504093	           46.282886	           -0.227100	            0.005711	           -0.711067	           -0.010907	           -1.872088	           -0.172085
            0.012500	          -10.528321	          648.916806	          -72.488925	           -0.234670	            0.006380	           -0.442048	            0.075679	           -4.664474	            0.521057	            5.846778	          514.193831	           46.742093	           -0.227880	            0.005709	           -0.711141	           -0.018246	           -1.604621	           -0.145866
            0.013000	          -10.356102	          662.631975	          -75.915684	           -0.234616	            0.006380	           -0.442034	            0.074533	           -4.768992	            0.546369	            8.802896	          526.166820	           48.895291	           -0.228706	            0.005707	           -0.711576	           -0.021708	           -1.297547	           -0.120578
            0.013500	          -10.964122	          675.087008	          -79.804472	           -0.234629	            0.006382	           -0.442369	            0.074730	           -4.601276	            0.543933	           11.807296	          537.770738	           51.281796	           -0.229119	            0.005706	           -0.711551	           -0.020531	           -0.935084	           -0.089170
            0.014000	          -12.486581	          688.619118	          -82.631671	           -0.234876	            0.006380	           -0.442023	            0.080678	           -4.449289	            0.533898	           15.838077	          550.486022	           52.920955	           -0.229742	            0.005704	           -0.711683	           -0.026153	           -0.908986	           -0.087385
            0.014500	          -15.061283	          702.868034	          -84.536044	           -0.235036	            0.006378	           -0.441563	            0.095814	           -4.471354	            0.537783	           19.866353	          563.757851	           53.388882	           -0.230617	            0.005701	           -0.711806	           -0.037013	           -1.050342	           -0.099469
            0.015000	          -17.039470	          715.314076	          -86.357905	           -0.235111	            0.006379	           -0.441686	            0.114655	           -4.813216	            0.581086	           23.987433	          577.216061	           53.341218	           -0.231081	            0.005700	           -0.711907	           -0.053082	           -1.277321	           -0.118039
            0.015500	          -18.741887	          728.840132	          -87.808965	           -0.235212	            0.006378	           -0.441605	            0.136571	           -5.311004	            0.639857	           27.637442	          591.408594	           53.484094	           -0.231446	            0.005699	           -0.711958	           -0.065648	           -1.404789	           -0.127042
            0.016000	          -18.888209	          742.731406	          -90.271184	           -0.235360	            0.006377	           -0.441392	            0.140798	           -5.536517	            0.672905	           30.116572	          605.593764	           54.472174	           -0.231737	            0.005699	           -0.712195	           -0.062011	           -1.246944	           -0.112161
            0.016500	          -18.211085	          756.085096	          -93.471466	           -0.235649	            0.006377	           -0.441326	            0.132982	           -5.521129	            0.682553	           31.805477	          618.295569	           57.520172	           -0.232306	            0.005697	           -0.712145	           -0.047913	           -0.931417	           -0.086650
            0.017000	          -17.350144	          768.897466	          -96.536949	           -0.235632	            0.006378	           -0.441571	            0.115270	           -5.108356	            0.641367	           32.644119	          633.017092	           61.373535	           -0.232492	            0.005698	           -0.712644	           -0.022095	           -0.428446	           -0.041540
            0.017500	          -17.726738	          781.709326	          -99.507641	           -0.235526	            0.006378	           -0.441596	            0.108488	           -4.784087	            0.608990	           33.953573	          647.006589	           64.426292	           -0.232851	            0.005697	           -0.712826	           -0.006674	           -0.127176	           -0.012664
            0.018000	          -19.109652	          795.418098	         -101.508995	           -0.235612	            0.006377	           -0.441365	            0.114682	           -4.773508	            0.609182	           35.311494	          660.446785	           66.632352	           -0.232976	            0.005697	           -0.712956	           -0.008537	           -0.159669	           -0.016109
            0.018500	          -20.948731	          807.320722	         -102.737394	           -0.235830	            0.006378	           -0.441477	            0.133564	           -5.147278	            0.655028	           36.528395	          673.890323	           67.759133	           -0.233104	            0.005697	           -0.712955	           -0.018452	           -0.340416	           -0.034229
            0.019000	          -22.558695	          819.764279	         -103.964043	           -0.235874	            0.006378	           -0.441663	            0.156913	           -5.702097	            0.723151	           37.371129	          687.148640	           68.791545	           -0.233344	            0.005696	           -0.712916	           -0.025354	           -0.466179	           -0.046670
            0.019500	          -22.840011	          833.470905	         -105.417872	           -0.235949	            0.006377	           -0.441369	            0.162480	           -5.929174	            0.749925	           36.849950	          701.874798	           69.970584	           -0.233444	            0.005695	           -0.713005	           -0.018762	           -0.357361	           -0.035626
